<mxfile host="app.diagrams.net" modified="2023-09-24T22:26:36.921Z" agent="Mozilla/5.0 (Windows NT 10.0; Win64; x64) AppleWebKit/537.36 (KHTML, like Gecko) Chrome/116.0.0.0 Safari/537.36" etag="Ho3IzzTiHlAiOAPj5FIE" version="21.7.5" type="device">
  <diagram name="第 1 页" id="2499AEwFp_2Zm03pMcep">
    <mxGraphModel dx="1221" dy="648" grid="1" gridSize="10" guides="1" tooltips="1" connect="1" arrows="1" fold="1" page="1" pageScale="1" pageWidth="827" pageHeight="1169" math="0" shadow="0">
      <root>
        <mxCell id="0" />
        <mxCell id="1" parent="0" />
        <mxCell id="eCV0NiuXoyMbTnGnmDhb-6" style="edgeStyle=orthogonalEdgeStyle;rounded=0;orthogonalLoop=1;jettySize=auto;html=1;exitX=0;exitY=0.75;exitDx=0;exitDy=0;" parent="1" source="6NCEGb0OjvLogtX7WchQ-1" edge="1">
          <mxGeometry relative="1" as="geometry">
            <mxPoint x="740" y="140" as="targetPoint" />
          </mxGeometry>
        </mxCell>
        <mxCell id="6NCEGb0OjvLogtX7WchQ-1" value="&lt;font style=&quot;font-size: 21px;&quot;&gt;film&lt;/font&gt;" style="rounded=0;whiteSpace=wrap;html=1;fillColor=#ffe6cc;strokeColor=#d79b00;" parent="1" vertex="1">
          <mxGeometry x="740" y="95" width="120" height="60" as="geometry" />
        </mxCell>
        <mxCell id="6NCEGb0OjvLogtX7WchQ-2" value="&lt;span style=&quot;font-size: 21px;&quot;&gt;language&lt;/span&gt;" style="rounded=0;whiteSpace=wrap;html=1;fillColor=#ffe6cc;strokeColor=#d79b00;" parent="1" vertex="1">
          <mxGeometry x="350" y="100" width="120" height="60" as="geometry" />
        </mxCell>
        <mxCell id="6NCEGb0OjvLogtX7WchQ-3" value="&lt;font style=&quot;font-size: 16px;&quot;&gt;film_id&lt;/font&gt;" style="ellipse;whiteSpace=wrap;html=1;fillColor=#e1d5e7;strokeColor=#9673a6;" parent="1" vertex="1">
          <mxGeometry x="800" y="10" width="80" height="50" as="geometry" />
        </mxCell>
        <mxCell id="6NCEGb0OjvLogtX7WchQ-5" value="&lt;font style=&quot;font-size: 16px;&quot;&gt;language_id&lt;/font&gt;" style="ellipse;whiteSpace=wrap;html=1;fillColor=#e1d5e7;strokeColor=#9673a6;" parent="1" vertex="1">
          <mxGeometry x="350" y="15" width="110" height="60" as="geometry" />
        </mxCell>
        <mxCell id="6NCEGb0OjvLogtX7WchQ-6" value="&lt;font style=&quot;font-size: 16px;&quot;&gt;language_id&lt;/font&gt;" style="ellipse;whiteSpace=wrap;html=1;fillColor=#dae8fc;strokeColor=#6c8ebf;" parent="1" vertex="1">
          <mxGeometry x="900" y="35" width="110" height="60" as="geometry" />
        </mxCell>
        <mxCell id="6NCEGb0OjvLogtX7WchQ-7" value="&lt;font style=&quot;font-size: 21px;&quot;&gt;film_&lt;br&gt;category&lt;/font&gt;" style="rounded=0;whiteSpace=wrap;html=1;fillColor=#ffe6cc;strokeColor=#d79b00;" parent="1" vertex="1">
          <mxGeometry x="270" y="220" width="120" height="60" as="geometry" />
        </mxCell>
        <mxCell id="6NCEGb0OjvLogtX7WchQ-8" value="&lt;font style=&quot;font-size: 16px;&quot;&gt;film_id&lt;/font&gt;" style="ellipse;whiteSpace=wrap;html=1;fillColor=#dae8fc;strokeColor=#6c8ebf;" parent="1" vertex="1">
          <mxGeometry x="120" y="240" width="80" height="50" as="geometry" />
        </mxCell>
        <mxCell id="6NCEGb0OjvLogtX7WchQ-9" value="" style="endArrow=none;html=1;rounded=0;entryX=0;entryY=1;entryDx=0;entryDy=0;exitX=0.75;exitY=0;exitDx=0;exitDy=0;" parent="1" source="6NCEGb0OjvLogtX7WchQ-1" target="6NCEGb0OjvLogtX7WchQ-3" edge="1">
          <mxGeometry width="50" height="50" relative="1" as="geometry">
            <mxPoint x="690" y="110" as="sourcePoint" />
            <mxPoint x="710" y="80" as="targetPoint" />
          </mxGeometry>
        </mxCell>
        <mxCell id="6NCEGb0OjvLogtX7WchQ-10" value="" style="endArrow=none;html=1;rounded=0;entryX=0;entryY=0.5;entryDx=0;entryDy=0;exitX=1;exitY=0.5;exitDx=0;exitDy=0;" parent="1" source="6NCEGb0OjvLogtX7WchQ-1" target="6NCEGb0OjvLogtX7WchQ-6" edge="1">
          <mxGeometry width="50" height="50" relative="1" as="geometry">
            <mxPoint x="660" y="120" as="sourcePoint" />
            <mxPoint x="730" y="90" as="targetPoint" />
          </mxGeometry>
        </mxCell>
        <mxCell id="6NCEGb0OjvLogtX7WchQ-11" value="" style="endArrow=none;html=1;rounded=0;entryX=0.5;entryY=1;entryDx=0;entryDy=0;exitX=0.5;exitY=0;exitDx=0;exitDy=0;" parent="1" source="6NCEGb0OjvLogtX7WchQ-2" target="6NCEGb0OjvLogtX7WchQ-5" edge="1">
          <mxGeometry width="50" height="50" relative="1" as="geometry">
            <mxPoint x="310" y="100" as="sourcePoint" />
            <mxPoint x="390" y="65" as="targetPoint" />
          </mxGeometry>
        </mxCell>
        <mxCell id="6NCEGb0OjvLogtX7WchQ-12" value="&lt;font style=&quot;font-size: 16px;&quot;&gt;category_id&lt;/font&gt;" style="ellipse;whiteSpace=wrap;html=1;fillColor=#dae8fc;strokeColor=#6c8ebf;" parent="1" vertex="1">
          <mxGeometry x="140" y="300" width="100" height="60" as="geometry" />
        </mxCell>
        <mxCell id="6NCEGb0OjvLogtX7WchQ-13" value="" style="endArrow=none;html=1;rounded=0;entryX=0;entryY=0.5;entryDx=0;entryDy=0;exitX=1;exitY=0.4;exitDx=0;exitDy=0;exitPerimeter=0;" parent="1" source="6NCEGb0OjvLogtX7WchQ-8" target="6NCEGb0OjvLogtX7WchQ-7" edge="1">
          <mxGeometry width="50" height="50" relative="1" as="geometry">
            <mxPoint x="290" y="237" as="sourcePoint" />
            <mxPoint x="342" y="200" as="targetPoint" />
          </mxGeometry>
        </mxCell>
        <mxCell id="6NCEGb0OjvLogtX7WchQ-14" value="" style="endArrow=none;html=1;rounded=0;entryX=0.25;entryY=1;entryDx=0;entryDy=0;" parent="1" source="6NCEGb0OjvLogtX7WchQ-12" target="6NCEGb0OjvLogtX7WchQ-7" edge="1">
          <mxGeometry width="50" height="50" relative="1" as="geometry">
            <mxPoint x="250" y="270" as="sourcePoint" />
            <mxPoint x="320" y="270" as="targetPoint" />
          </mxGeometry>
        </mxCell>
        <mxCell id="6NCEGb0OjvLogtX7WchQ-16" value="&lt;font style=&quot;font-size: 16px;&quot;&gt;inventory_id&lt;/font&gt;" style="ellipse;whiteSpace=wrap;html=1;fillColor=#e1d5e7;strokeColor=#9673a6;" parent="1" vertex="1">
          <mxGeometry x="124" y="10" width="110" height="70" as="geometry" />
        </mxCell>
        <mxCell id="6NCEGb0OjvLogtX7WchQ-17" value="&lt;font style=&quot;font-size: 16px;&quot;&gt;film_id&lt;/font&gt;" style="ellipse;whiteSpace=wrap;html=1;fillColor=#dae8fc;strokeColor=#6c8ebf;" parent="1" vertex="1">
          <mxGeometry x="240" y="70" width="80" height="50" as="geometry" />
        </mxCell>
        <mxCell id="6NCEGb0OjvLogtX7WchQ-18" value="&lt;font style=&quot;font-size: 16px;&quot;&gt;store_id&lt;/font&gt;" style="ellipse;whiteSpace=wrap;html=1;fillColor=#dae8fc;strokeColor=#6c8ebf;" parent="1" vertex="1">
          <mxGeometry x="10" y="25" width="80" height="50" as="geometry" />
        </mxCell>
        <mxCell id="6NCEGb0OjvLogtX7WchQ-19" value="" style="endArrow=none;html=1;rounded=0;entryX=0.375;entryY=1;entryDx=0;entryDy=0;exitX=0.5;exitY=0;exitDx=0;exitDy=0;entryPerimeter=0;" parent="1" source="eCV0NiuXoyMbTnGnmDhb-1" target="6NCEGb0OjvLogtX7WchQ-16" edge="1">
          <mxGeometry width="50" height="50" relative="1" as="geometry">
            <mxPoint x="110" y="175" as="sourcePoint" />
            <mxPoint x="162" y="126.5" as="targetPoint" />
          </mxGeometry>
        </mxCell>
        <mxCell id="6NCEGb0OjvLogtX7WchQ-20" value="" style="endArrow=none;html=1;rounded=0;entryX=0;entryY=0.5;entryDx=0;entryDy=0;exitX=0.75;exitY=0;exitDx=0;exitDy=0;" parent="1" source="eCV0NiuXoyMbTnGnmDhb-1" target="6NCEGb0OjvLogtX7WchQ-17" edge="1">
          <mxGeometry width="50" height="50" relative="1" as="geometry">
            <mxPoint x="170" y="175" as="sourcePoint" />
            <mxPoint x="150" y="140" as="targetPoint" />
          </mxGeometry>
        </mxCell>
        <mxCell id="6NCEGb0OjvLogtX7WchQ-21" value="" style="endArrow=none;html=1;rounded=0;entryX=0.5;entryY=1;entryDx=0;entryDy=0;exitX=0.25;exitY=0;exitDx=0;exitDy=0;" parent="1" source="eCV0NiuXoyMbTnGnmDhb-1" target="6NCEGb0OjvLogtX7WchQ-18" edge="1">
          <mxGeometry width="50" height="50" relative="1" as="geometry">
            <mxPoint x="80" y="175" as="sourcePoint" />
            <mxPoint x="150" y="140" as="targetPoint" />
          </mxGeometry>
        </mxCell>
        <mxCell id="6NCEGb0OjvLogtX7WchQ-24" value="&lt;font style=&quot;font-size: 16px;&quot;&gt;film_id&lt;/font&gt;" style="ellipse;whiteSpace=wrap;html=1;fillColor=#dae8fc;strokeColor=#6c8ebf;" parent="1" vertex="1">
          <mxGeometry x="560" y="290" width="80" height="50" as="geometry" />
        </mxCell>
        <mxCell id="6NCEGb0OjvLogtX7WchQ-25" value="" style="endArrow=none;html=1;rounded=0;exitX=1;exitY=0.25;exitDx=0;exitDy=0;entryX=0;entryY=0.5;entryDx=0;entryDy=0;" parent="1" source="eCV0NiuXoyMbTnGnmDhb-5" target="6NCEGb0OjvLogtX7WchQ-24" edge="1">
          <mxGeometry width="50" height="50" relative="1" as="geometry">
            <mxPoint x="520" y="320" as="sourcePoint" />
            <mxPoint x="570" y="290" as="targetPoint" />
          </mxGeometry>
        </mxCell>
        <mxCell id="6NCEGb0OjvLogtX7WchQ-26" value="&lt;font style=&quot;font-size: 16px;&quot;&gt;actor_id&lt;/font&gt;" style="ellipse;whiteSpace=wrap;html=1;fillColor=#dae8fc;strokeColor=#6c8ebf;" parent="1" vertex="1">
          <mxGeometry x="556.66" y="360" width="80" height="50" as="geometry" />
        </mxCell>
        <mxCell id="6NCEGb0OjvLogtX7WchQ-27" value="" style="endArrow=none;html=1;rounded=0;entryX=0;entryY=0.5;entryDx=0;entryDy=0;exitX=1;exitY=1;exitDx=0;exitDy=0;" parent="1" source="eCV0NiuXoyMbTnGnmDhb-5" target="6NCEGb0OjvLogtX7WchQ-26" edge="1">
          <mxGeometry width="50" height="50" relative="1" as="geometry">
            <mxPoint x="520" y="350" as="sourcePoint" />
            <mxPoint x="590" y="400" as="targetPoint" />
          </mxGeometry>
        </mxCell>
        <mxCell id="6NCEGb0OjvLogtX7WchQ-28" value="" style="edgeStyle=orthogonalEdgeStyle;fontSize=12;html=1;endArrow=ERoneToMany;startArrow=ERmandOne;rounded=0;exitX=0.75;exitY=1;exitDx=0;exitDy=0;entryX=0.574;entryY=0.013;entryDx=0;entryDy=0;entryPerimeter=0;" parent="1" source="6NCEGb0OjvLogtX7WchQ-1" edge="1" target="eCV0NiuXoyMbTnGnmDhb-5">
          <mxGeometry width="100" height="100" relative="1" as="geometry">
            <mxPoint x="360" y="310" as="sourcePoint" />
            <mxPoint x="460" y="290" as="targetPoint" />
            <Array as="points">
              <mxPoint x="830" y="200" />
              <mxPoint x="460" y="200" />
            </Array>
          </mxGeometry>
        </mxCell>
        <mxCell id="6NCEGb0OjvLogtX7WchQ-29" value="" style="edgeStyle=orthogonalEdgeStyle;fontSize=12;html=1;endArrow=ERoneToMany;startArrow=ERmandOne;rounded=0;exitX=0.5;exitY=1;exitDx=0;exitDy=0;entryX=1;entryY=0.5;entryDx=0;entryDy=0;" parent="1" source="6NCEGb0OjvLogtX7WchQ-1" target="6NCEGb0OjvLogtX7WchQ-7" edge="1">
          <mxGeometry width="100" height="100" relative="1" as="geometry">
            <mxPoint x="640" y="190" as="sourcePoint" />
            <mxPoint x="520" y="380" as="targetPoint" />
          </mxGeometry>
        </mxCell>
        <mxCell id="6NCEGb0OjvLogtX7WchQ-30" value="" style="edgeStyle=orthogonalEdgeStyle;fontSize=12;html=1;endArrow=ERoneToMany;startArrow=ERmandOne;rounded=0;exitX=0.25;exitY=1;exitDx=0;exitDy=0;entryX=1;entryY=0.25;entryDx=0;entryDy=0;" parent="1" source="6NCEGb0OjvLogtX7WchQ-1" target="eCV0NiuXoyMbTnGnmDhb-1" edge="1">
          <mxGeometry width="100" height="100" relative="1" as="geometry">
            <mxPoint x="610" y="190" as="sourcePoint" />
            <mxPoint x="170" y="205" as="targetPoint" />
            <Array as="points">
              <mxPoint x="770" y="185" />
            </Array>
          </mxGeometry>
        </mxCell>
        <mxCell id="6NCEGb0OjvLogtX7WchQ-31" value="" style="edgeStyle=orthogonalEdgeStyle;fontSize=12;html=1;endArrow=ERoneToMany;startArrow=ERmandOne;rounded=0;exitX=1;exitY=0.5;exitDx=0;exitDy=0;entryX=0;entryY=0.75;entryDx=0;entryDy=0;" parent="1" source="6NCEGb0OjvLogtX7WchQ-2" target="6NCEGb0OjvLogtX7WchQ-1" edge="1">
          <mxGeometry width="100" height="100" relative="1" as="geometry">
            <mxPoint x="580" y="190" as="sourcePoint" />
            <mxPoint x="460" y="180" as="targetPoint" />
            <Array as="points">
              <mxPoint x="500" y="130" />
              <mxPoint x="500" y="150" />
              <mxPoint x="560" y="150" />
              <mxPoint x="560" y="135" />
              <mxPoint x="720" y="135" />
              <mxPoint x="720" y="140" />
            </Array>
          </mxGeometry>
        </mxCell>
        <mxCell id="6NCEGb0OjvLogtX7WchQ-32" value="&lt;font style=&quot;font-size: 21px;&quot;&gt;category&lt;/font&gt;" style="rounded=0;whiteSpace=wrap;html=1;fillColor=#ffe6cc;strokeColor=#d79b00;" parent="1" vertex="1">
          <mxGeometry x="220" y="380" width="120" height="60" as="geometry" />
        </mxCell>
        <mxCell id="6NCEGb0OjvLogtX7WchQ-33" value="" style="edgeStyle=orthogonalEdgeStyle;fontSize=12;html=1;endArrow=ERoneToMany;startArrow=ERmandOne;rounded=0;exitX=0.5;exitY=0;exitDx=0;exitDy=0;entryX=0.75;entryY=1;entryDx=0;entryDy=0;" parent="1" source="6NCEGb0OjvLogtX7WchQ-32" target="6NCEGb0OjvLogtX7WchQ-7" edge="1">
          <mxGeometry width="100" height="100" relative="1" as="geometry">
            <mxPoint x="610" y="190" as="sourcePoint" />
            <mxPoint x="410" y="290" as="targetPoint" />
          </mxGeometry>
        </mxCell>
        <mxCell id="6NCEGb0OjvLogtX7WchQ-34" value="&lt;font style=&quot;font-size: 16px;&quot;&gt;category_id&lt;/font&gt;" style="ellipse;whiteSpace=wrap;html=1;fillColor=#e1d5e7;strokeColor=#9673a6;" parent="1" vertex="1">
          <mxGeometry x="90" y="370" width="90" height="65" as="geometry" />
        </mxCell>
        <mxCell id="6NCEGb0OjvLogtX7WchQ-35" value="" style="endArrow=none;html=1;rounded=0;entryX=0;entryY=0.5;entryDx=0;entryDy=0;exitX=1;exitY=0.5;exitDx=0;exitDy=0;" parent="1" source="6NCEGb0OjvLogtX7WchQ-34" target="6NCEGb0OjvLogtX7WchQ-32" edge="1">
          <mxGeometry width="50" height="50" relative="1" as="geometry">
            <mxPoint x="185" y="485" as="sourcePoint" />
            <mxPoint x="275" y="445" as="targetPoint" />
          </mxGeometry>
        </mxCell>
        <mxCell id="6NCEGb0OjvLogtX7WchQ-36" value="&lt;span style=&quot;font-size: 21px;&quot;&gt;city&lt;/span&gt;" style="rounded=0;whiteSpace=wrap;html=1;fillColor=#ffe6cc;strokeColor=#d79b00;" parent="1" vertex="1">
          <mxGeometry x="1060" y="277.5" width="120" height="60" as="geometry" />
        </mxCell>
        <mxCell id="6NCEGb0OjvLogtX7WchQ-37" value="&lt;font style=&quot;font-size: 17px;&quot;&gt;city_id&lt;/font&gt;" style="ellipse;whiteSpace=wrap;html=1;fillColor=#e1d5e7;strokeColor=#9673a6;" parent="1" vertex="1">
          <mxGeometry x="1250" y="256.5" width="80" height="50" as="geometry" />
        </mxCell>
        <mxCell id="6NCEGb0OjvLogtX7WchQ-38" value="&lt;font style=&quot;font-size: 16px;&quot;&gt;country_id&lt;/font&gt;" style="ellipse;whiteSpace=wrap;html=1;fillColor=#dae8fc;strokeColor=#6c8ebf;" parent="1" vertex="1">
          <mxGeometry x="1230" y="320" width="80" height="50" as="geometry" />
        </mxCell>
        <mxCell id="6NCEGb0OjvLogtX7WchQ-39" value="" style="endArrow=none;html=1;rounded=0;entryX=0;entryY=0.5;entryDx=0;entryDy=0;" parent="1" source="6NCEGb0OjvLogtX7WchQ-36" target="6NCEGb0OjvLogtX7WchQ-38" edge="1">
          <mxGeometry width="50" height="50" relative="1" as="geometry">
            <mxPoint x="640" y="130" as="sourcePoint" />
            <mxPoint x="730" y="90" as="targetPoint" />
          </mxGeometry>
        </mxCell>
        <mxCell id="6NCEGb0OjvLogtX7WchQ-40" value="" style="endArrow=none;html=1;rounded=0;entryX=0;entryY=0.5;entryDx=0;entryDy=0;exitX=1;exitY=0.25;exitDx=0;exitDy=0;" parent="1" source="6NCEGb0OjvLogtX7WchQ-36" target="6NCEGb0OjvLogtX7WchQ-37" edge="1">
          <mxGeometry width="50" height="50" relative="1" as="geometry">
            <mxPoint x="820" y="300" as="sourcePoint" />
            <mxPoint x="877" y="280" as="targetPoint" />
          </mxGeometry>
        </mxCell>
        <mxCell id="6NCEGb0OjvLogtX7WchQ-41" value="&lt;span style=&quot;font-size: 21px;&quot;&gt;address&lt;/span&gt;" style="rounded=0;whiteSpace=wrap;html=1;fillColor=#ffe6cc;strokeColor=#d79b00;" parent="1" vertex="1">
          <mxGeometry x="730" y="510" width="120" height="60" as="geometry" />
        </mxCell>
        <mxCell id="6NCEGb0OjvLogtX7WchQ-42" value="&lt;span style=&quot;font-size: 16px;&quot;&gt;address_id&lt;/span&gt;" style="ellipse;whiteSpace=wrap;html=1;fillColor=#e1d5e7;strokeColor=#9673a6;" parent="1" vertex="1">
          <mxGeometry x="817" y="440" width="100" height="60" as="geometry" />
        </mxCell>
        <mxCell id="6NCEGb0OjvLogtX7WchQ-44" value="&lt;font style=&quot;font-size: 16px;&quot;&gt;city_id&lt;/font&gt;" style="ellipse;whiteSpace=wrap;html=1;fillColor=#dae8fc;strokeColor=#6c8ebf;" parent="1" vertex="1">
          <mxGeometry x="690" y="440" width="80" height="50" as="geometry" />
        </mxCell>
        <mxCell id="6NCEGb0OjvLogtX7WchQ-45" value="" style="endArrow=none;html=1;rounded=0;entryX=0.5;entryY=1;entryDx=0;entryDy=0;exitX=0.75;exitY=0;exitDx=0;exitDy=0;" parent="1" source="6NCEGb0OjvLogtX7WchQ-41" target="6NCEGb0OjvLogtX7WchQ-42" edge="1">
          <mxGeometry width="50" height="50" relative="1" as="geometry">
            <mxPoint x="838.5" y="535" as="sourcePoint" />
            <mxPoint x="895.5" y="515" as="targetPoint" />
          </mxGeometry>
        </mxCell>
        <mxCell id="6NCEGb0OjvLogtX7WchQ-46" value="" style="endArrow=none;html=1;rounded=0;exitX=0.25;exitY=0;exitDx=0;exitDy=0;entryX=0.5;entryY=1;entryDx=0;entryDy=0;" parent="1" source="6NCEGb0OjvLogtX7WchQ-41" target="6NCEGb0OjvLogtX7WchQ-44" edge="1">
          <mxGeometry width="50" height="50" relative="1" as="geometry">
            <mxPoint x="860" y="565" as="sourcePoint" />
            <mxPoint x="790" y="525" as="targetPoint" />
          </mxGeometry>
        </mxCell>
        <mxCell id="6NCEGb0OjvLogtX7WchQ-47" value="&lt;span style=&quot;font-size: 21px;&quot;&gt;staff&lt;/span&gt;" style="rounded=0;whiteSpace=wrap;html=1;fillColor=#ffe6cc;strokeColor=#d79b00;" parent="1" vertex="1">
          <mxGeometry x="140" y="535" width="120" height="60" as="geometry" />
        </mxCell>
        <mxCell id="6NCEGb0OjvLogtX7WchQ-48" value="&lt;font style=&quot;font-size: 16px;&quot;&gt;staff_id&lt;/font&gt;" style="ellipse;whiteSpace=wrap;html=1;fillColor=#e1d5e7;strokeColor=#9673a6;" parent="1" vertex="1">
          <mxGeometry x="10" y="550" width="80" height="50" as="geometry" />
        </mxCell>
        <mxCell id="6NCEGb0OjvLogtX7WchQ-49" value="&lt;font style=&quot;font-size: 16px;&quot;&gt;address_id&lt;/font&gt;" style="ellipse;whiteSpace=wrap;html=1;fillColor=#dae8fc;strokeColor=#6c8ebf;" parent="1" vertex="1">
          <mxGeometry x="30" y="620" width="90" height="60" as="geometry" />
        </mxCell>
        <mxCell id="6NCEGb0OjvLogtX7WchQ-51" value="&lt;font style=&quot;font-size: 16px;&quot;&gt;store_id&lt;/font&gt;" style="ellipse;whiteSpace=wrap;html=1;fillColor=#dae8fc;strokeColor=#6c8ebf;" parent="1" vertex="1">
          <mxGeometry x="120" y="670" width="80" height="50" as="geometry" />
        </mxCell>
        <mxCell id="6NCEGb0OjvLogtX7WchQ-52" value="" style="endArrow=none;html=1;rounded=0;entryX=0;entryY=0.5;entryDx=0;entryDy=0;exitX=1;exitY=0.5;exitDx=0;exitDy=0;" parent="1" source="6NCEGb0OjvLogtX7WchQ-48" target="6NCEGb0OjvLogtX7WchQ-47" edge="1">
          <mxGeometry width="50" height="50" relative="1" as="geometry">
            <mxPoint x="200" y="495" as="sourcePoint" />
            <mxPoint x="250" y="490" as="targetPoint" />
          </mxGeometry>
        </mxCell>
        <mxCell id="6NCEGb0OjvLogtX7WchQ-53" value="" style="endArrow=none;html=1;rounded=0;entryX=0.25;entryY=1;entryDx=0;entryDy=0;exitX=1;exitY=0;exitDx=0;exitDy=0;" parent="1" source="6NCEGb0OjvLogtX7WchQ-49" target="6NCEGb0OjvLogtX7WchQ-47" edge="1">
          <mxGeometry width="50" height="50" relative="1" as="geometry">
            <mxPoint x="140" y="620" as="sourcePoint" />
            <mxPoint x="180" y="625" as="targetPoint" />
          </mxGeometry>
        </mxCell>
        <mxCell id="6NCEGb0OjvLogtX7WchQ-54" value="" style="endArrow=none;html=1;rounded=0;entryX=0.5;entryY=1;entryDx=0;entryDy=0;exitX=0.5;exitY=0;exitDx=0;exitDy=0;" parent="1" source="6NCEGb0OjvLogtX7WchQ-51" target="6NCEGb0OjvLogtX7WchQ-47" edge="1">
          <mxGeometry width="50" height="50" relative="1" as="geometry">
            <mxPoint x="180" y="680" as="sourcePoint" />
            <mxPoint x="210" y="655" as="targetPoint" />
          </mxGeometry>
        </mxCell>
        <mxCell id="6NCEGb0OjvLogtX7WchQ-55" value="&lt;span style=&quot;font-size: 21px;&quot;&gt;customer&lt;/span&gt;" style="rounded=0;whiteSpace=wrap;html=1;fillColor=#ffe6cc;strokeColor=#d79b00;" parent="1" vertex="1">
          <mxGeometry x="130" y="930" width="120" height="60" as="geometry" />
        </mxCell>
        <mxCell id="6NCEGb0OjvLogtX7WchQ-56" value="&lt;font style=&quot;font-size: 16px;&quot;&gt;customer_id&lt;/font&gt;" style="ellipse;whiteSpace=wrap;html=1;fillColor=#e1d5e7;strokeColor=#9673a6;" parent="1" vertex="1">
          <mxGeometry x="60" y="810" width="110" height="60" as="geometry" />
        </mxCell>
        <mxCell id="6NCEGb0OjvLogtX7WchQ-57" value="&lt;font style=&quot;font-size: 16px;&quot;&gt;store_id&lt;/font&gt;" style="ellipse;whiteSpace=wrap;html=1;fillColor=#dae8fc;strokeColor=#6c8ebf;" parent="1" vertex="1">
          <mxGeometry y="935" width="80" height="50" as="geometry" />
        </mxCell>
        <mxCell id="6NCEGb0OjvLogtX7WchQ-58" value="&lt;font style=&quot;font-size: 16px;&quot;&gt;address_id&lt;/font&gt;" style="ellipse;whiteSpace=wrap;html=1;fillColor=#dae8fc;strokeColor=#6c8ebf;" parent="1" vertex="1">
          <mxGeometry x="250" y="840" width="110" height="60" as="geometry" />
        </mxCell>
        <mxCell id="6NCEGb0OjvLogtX7WchQ-59" value="" style="endArrow=none;html=1;rounded=0;entryX=0.5;entryY=1;entryDx=0;entryDy=0;exitX=0.5;exitY=0;exitDx=0;exitDy=0;" parent="1" source="6NCEGb0OjvLogtX7WchQ-55" target="6NCEGb0OjvLogtX7WchQ-56" edge="1">
          <mxGeometry width="50" height="50" relative="1" as="geometry">
            <mxPoint x="148" y="687" as="sourcePoint" />
            <mxPoint x="230" y="650" as="targetPoint" />
          </mxGeometry>
        </mxCell>
        <mxCell id="6NCEGb0OjvLogtX7WchQ-61" value="" style="endArrow=none;html=1;rounded=0;entryX=0;entryY=1;entryDx=0;entryDy=0;exitX=1;exitY=0;exitDx=0;exitDy=0;" parent="1" source="6NCEGb0OjvLogtX7WchQ-55" target="6NCEGb0OjvLogtX7WchQ-58" edge="1">
          <mxGeometry width="50" height="50" relative="1" as="geometry">
            <mxPoint x="210" y="890" as="sourcePoint" />
            <mxPoint x="180" y="840" as="targetPoint" />
          </mxGeometry>
        </mxCell>
        <mxCell id="6NCEGb0OjvLogtX7WchQ-62" value="" style="endArrow=none;html=1;rounded=0;entryX=1;entryY=0.5;entryDx=0;entryDy=0;exitX=0;exitY=0.5;exitDx=0;exitDy=0;" parent="1" source="6NCEGb0OjvLogtX7WchQ-55" target="6NCEGb0OjvLogtX7WchQ-57" edge="1">
          <mxGeometry width="50" height="50" relative="1" as="geometry">
            <mxPoint x="210" y="890" as="sourcePoint" />
            <mxPoint x="180" y="840" as="targetPoint" />
          </mxGeometry>
        </mxCell>
        <mxCell id="6NCEGb0OjvLogtX7WchQ-64" value="&lt;font style=&quot;font-size: 16px;&quot;&gt;customer_id&lt;/font&gt;" style="ellipse;whiteSpace=wrap;html=1;fillColor=#dae8fc;strokeColor=#6c8ebf;" parent="1" vertex="1">
          <mxGeometry x="490" y="690" width="100" height="70" as="geometry" />
        </mxCell>
        <mxCell id="6NCEGb0OjvLogtX7WchQ-65" value="&lt;font style=&quot;font-size: 16px;&quot;&gt;rental_id&lt;/font&gt;" style="ellipse;whiteSpace=wrap;html=1;fillColor=#dae8fc;strokeColor=#6c8ebf;" parent="1" vertex="1">
          <mxGeometry x="390" y="700" width="80" height="50" as="geometry" />
        </mxCell>
        <mxCell id="6NCEGb0OjvLogtX7WchQ-66" value="&lt;font style=&quot;font-size: 16px;&quot;&gt;staff_id&lt;/font&gt;" style="ellipse;whiteSpace=wrap;html=1;fillColor=#dae8fc;strokeColor=#6c8ebf;" parent="1" vertex="1">
          <mxGeometry x="290" y="720" width="80" height="50" as="geometry" />
        </mxCell>
        <mxCell id="6NCEGb0OjvLogtX7WchQ-67" value="" style="endArrow=none;html=1;rounded=0;entryX=0.5;entryY=1;entryDx=0;entryDy=0;exitX=0.433;exitY=0.028;exitDx=0;exitDy=0;exitPerimeter=0;" parent="1" source="eCV0NiuXoyMbTnGnmDhb-4" target="6NCEGb0OjvLogtX7WchQ-65" edge="1">
          <mxGeometry width="50" height="50" relative="1" as="geometry">
            <mxPoint x="480" y="800" as="sourcePoint" />
            <mxPoint x="290" y="650" as="targetPoint" />
          </mxGeometry>
        </mxCell>
        <mxCell id="6NCEGb0OjvLogtX7WchQ-68" value="" style="endArrow=none;html=1;rounded=0;entryX=0.352;entryY=0.97;entryDx=0;entryDy=0;exitX=0.705;exitY=0.043;exitDx=0;exitDy=0;entryPerimeter=0;exitPerimeter=0;" parent="1" target="6NCEGb0OjvLogtX7WchQ-64" edge="1" source="eCV0NiuXoyMbTnGnmDhb-4">
          <mxGeometry width="50" height="50" relative="1" as="geometry">
            <mxPoint x="540" y="800" as="sourcePoint" />
            <mxPoint x="500" y="750" as="targetPoint" />
          </mxGeometry>
        </mxCell>
        <mxCell id="6NCEGb0OjvLogtX7WchQ-69" value="" style="endArrow=none;html=1;rounded=0;exitX=0;exitY=0;exitDx=0;exitDy=0;entryX=1;entryY=1;entryDx=0;entryDy=0;" parent="1" source="eCV0NiuXoyMbTnGnmDhb-4" target="6NCEGb0OjvLogtX7WchQ-66" edge="1">
          <mxGeometry width="50" height="50" relative="1" as="geometry">
            <mxPoint x="420" y="800" as="sourcePoint" />
            <mxPoint x="400" y="720" as="targetPoint" />
          </mxGeometry>
        </mxCell>
        <mxCell id="6NCEGb0OjvLogtX7WchQ-70" value="&lt;span style=&quot;font-size: 21px;&quot;&gt;country&lt;/span&gt;" style="rounded=0;whiteSpace=wrap;html=1;fillColor=#ffe6cc;strokeColor=#d79b00;" parent="1" vertex="1">
          <mxGeometry x="460" y="550" width="120" height="60" as="geometry" />
        </mxCell>
        <mxCell id="6NCEGb0OjvLogtX7WchQ-71" value="&lt;span style=&quot;font-size: 16px;&quot;&gt;country_id&lt;/span&gt;" style="ellipse;whiteSpace=wrap;html=1;fillColor=#e1d5e7;strokeColor=#9673a6;" parent="1" vertex="1">
          <mxGeometry x="314" y="550" width="100" height="60" as="geometry" />
        </mxCell>
        <mxCell id="6NCEGb0OjvLogtX7WchQ-72" value="" style="endArrow=none;html=1;rounded=0;exitX=0;exitY=0.5;exitDx=0;exitDy=0;entryX=1;entryY=0.5;entryDx=0;entryDy=0;" parent="1" source="6NCEGb0OjvLogtX7WchQ-70" target="6NCEGb0OjvLogtX7WchQ-71" edge="1">
          <mxGeometry width="50" height="50" relative="1" as="geometry">
            <mxPoint x="800" y="565" as="sourcePoint" />
            <mxPoint x="730" y="525" as="targetPoint" />
          </mxGeometry>
        </mxCell>
        <mxCell id="6NCEGb0OjvLogtX7WchQ-73" value="&lt;span style=&quot;font-size: 21px;&quot;&gt;actor&lt;/span&gt;" style="rounded=0;whiteSpace=wrap;html=1;fillColor=#ffe6cc;strokeColor=#d79b00;" parent="1" vertex="1">
          <mxGeometry x="750" y="835" width="120" height="60" as="geometry" />
        </mxCell>
        <mxCell id="6NCEGb0OjvLogtX7WchQ-74" value="&lt;span style=&quot;font-size: 16px;&quot;&gt;actor_id&lt;/span&gt;" style="ellipse;whiteSpace=wrap;html=1;fillColor=#e1d5e7;strokeColor=#9673a6;" parent="1" vertex="1">
          <mxGeometry x="917" y="835" width="100" height="60" as="geometry" />
        </mxCell>
        <mxCell id="6NCEGb0OjvLogtX7WchQ-75" value="" style="endArrow=none;html=1;rounded=0;exitX=0;exitY=0.5;exitDx=0;exitDy=0;entryX=1;entryY=0.5;entryDx=0;entryDy=0;" parent="1" source="6NCEGb0OjvLogtX7WchQ-74" target="6NCEGb0OjvLogtX7WchQ-73" edge="1">
          <mxGeometry width="50" height="50" relative="1" as="geometry">
            <mxPoint x="820" y="710" as="sourcePoint" />
            <mxPoint x="750" y="670" as="targetPoint" />
          </mxGeometry>
        </mxCell>
        <mxCell id="6NCEGb0OjvLogtX7WchQ-76" value="" style="edgeStyle=orthogonalEdgeStyle;fontSize=12;html=1;endArrow=ERoneToMany;startArrow=ERmandOne;rounded=0;entryX=0.428;entryY=1.006;entryDx=0;entryDy=0;entryPerimeter=0;exitX=0.5;exitY=0;exitDx=0;exitDy=0;" parent="1" source="6NCEGb0OjvLogtX7WchQ-73" edge="1" target="eCV0NiuXoyMbTnGnmDhb-5">
          <mxGeometry width="100" height="100" relative="1" as="geometry">
            <mxPoint x="805" y="835" as="sourcePoint" />
            <mxPoint x="400" y="410" as="targetPoint" />
            <Array as="points">
              <mxPoint x="805" y="835" />
              <mxPoint x="805" y="660" />
              <mxPoint x="442" y="660" />
              <mxPoint x="442" y="420" />
              <mxPoint x="441" y="420" />
              <mxPoint x="441" y="410" />
              <mxPoint x="440" y="410" />
            </Array>
          </mxGeometry>
        </mxCell>
        <mxCell id="6NCEGb0OjvLogtX7WchQ-77" value="&lt;span style=&quot;font-size: 21px;&quot;&gt;rental&lt;/span&gt;" style="rounded=0;whiteSpace=wrap;html=1;fillColor=#ffe6cc;strokeColor=#d79b00;" parent="1" vertex="1">
          <mxGeometry x="1330" y="95" width="120" height="60" as="geometry" />
        </mxCell>
        <mxCell id="6NCEGb0OjvLogtX7WchQ-78" value="&lt;font style=&quot;font-size: 16px;&quot;&gt;rental_id&lt;/font&gt;" style="ellipse;whiteSpace=wrap;html=1;fillColor=#e1d5e7;strokeColor=#9673a6;" parent="1" vertex="1">
          <mxGeometry x="1480" y="22.5" width="110" height="55" as="geometry" />
        </mxCell>
        <mxCell id="6NCEGb0OjvLogtX7WchQ-79" value="&lt;span style=&quot;font-size: 16px;&quot;&gt;inventory_id&lt;/span&gt;" style="ellipse;whiteSpace=wrap;html=1;fillColor=#dae8fc;strokeColor=#6c8ebf;" parent="1" vertex="1">
          <mxGeometry x="1510" y="95" width="100" height="55" as="geometry" />
        </mxCell>
        <mxCell id="6NCEGb0OjvLogtX7WchQ-80" value="&lt;span style=&quot;font-size: 16px;&quot;&gt;customer_id&lt;/span&gt;" style="ellipse;whiteSpace=wrap;html=1;fillColor=#dae8fc;strokeColor=#6c8ebf;" parent="1" vertex="1">
          <mxGeometry x="1490" y="165" width="100" height="55" as="geometry" />
        </mxCell>
        <mxCell id="6NCEGb0OjvLogtX7WchQ-81" value="&lt;span style=&quot;font-size: 16px;&quot;&gt;staff_id&lt;/span&gt;" style="ellipse;whiteSpace=wrap;html=1;fillColor=#dae8fc;strokeColor=#6c8ebf;" parent="1" vertex="1">
          <mxGeometry x="1410" y="225" width="100" height="55" as="geometry" />
        </mxCell>
        <mxCell id="6NCEGb0OjvLogtX7WchQ-82" value="" style="endArrow=none;html=1;rounded=0;entryX=0;entryY=1;entryDx=0;entryDy=0;exitX=0.5;exitY=0;exitDx=0;exitDy=0;" parent="1" source="6NCEGb0OjvLogtX7WchQ-77" target="6NCEGb0OjvLogtX7WchQ-78" edge="1">
          <mxGeometry width="50" height="50" relative="1" as="geometry">
            <mxPoint x="810" y="75" as="sourcePoint" />
            <mxPoint x="867" y="55" as="targetPoint" />
          </mxGeometry>
        </mxCell>
        <mxCell id="6NCEGb0OjvLogtX7WchQ-83" value="" style="endArrow=none;html=1;rounded=0;entryX=0;entryY=0.5;entryDx=0;entryDy=0;exitX=1;exitY=0.5;exitDx=0;exitDy=0;" parent="1" source="6NCEGb0OjvLogtX7WchQ-77" target="6NCEGb0OjvLogtX7WchQ-79" edge="1">
          <mxGeometry width="50" height="50" relative="1" as="geometry">
            <mxPoint x="1030" y="165" as="sourcePoint" />
            <mxPoint x="1025" y="120" as="targetPoint" />
          </mxGeometry>
        </mxCell>
        <mxCell id="6NCEGb0OjvLogtX7WchQ-84" value="" style="endArrow=none;html=1;rounded=0;exitX=1;exitY=1;exitDx=0;exitDy=0;entryX=0.5;entryY=0;entryDx=0;entryDy=0;" parent="1" source="6NCEGb0OjvLogtX7WchQ-77" target="6NCEGb0OjvLogtX7WchQ-80" edge="1">
          <mxGeometry width="50" height="50" relative="1" as="geometry">
            <mxPoint x="1090" y="195" as="sourcePoint" />
            <mxPoint x="1110" y="158" as="targetPoint" />
          </mxGeometry>
        </mxCell>
        <mxCell id="6NCEGb0OjvLogtX7WchQ-85" value="" style="endArrow=none;html=1;rounded=0;exitX=0.75;exitY=1;exitDx=0;exitDy=0;entryX=0.5;entryY=0;entryDx=0;entryDy=0;" parent="1" source="6NCEGb0OjvLogtX7WchQ-77" target="6NCEGb0OjvLogtX7WchQ-81" edge="1">
          <mxGeometry width="50" height="50" relative="1" as="geometry">
            <mxPoint x="1090" y="225" as="sourcePoint" />
            <mxPoint x="1150" y="235" as="targetPoint" />
          </mxGeometry>
        </mxCell>
        <mxCell id="6NCEGb0OjvLogtX7WchQ-86" value="&lt;span style=&quot;font-size: 21px;&quot;&gt;store&lt;/span&gt;" style="rounded=0;whiteSpace=wrap;html=1;fillColor=#ffe6cc;strokeColor=#d79b00;" parent="1" vertex="1">
          <mxGeometry x="1230" y="410" width="120" height="60" as="geometry" />
        </mxCell>
        <mxCell id="6NCEGb0OjvLogtX7WchQ-87" value="&lt;span style=&quot;font-size: 16px;&quot;&gt;store_id&lt;/span&gt;" style="ellipse;whiteSpace=wrap;html=1;fillColor=#e1d5e7;strokeColor=#9673a6;" parent="1" vertex="1">
          <mxGeometry x="1410" y="337.5" width="110" height="55" as="geometry" />
        </mxCell>
        <mxCell id="6NCEGb0OjvLogtX7WchQ-88" value="&lt;span style=&quot;font-size: 16px;&quot;&gt;manager&lt;br&gt;_staff_id&lt;/span&gt;" style="ellipse;whiteSpace=wrap;html=1;fillColor=#dae8fc;strokeColor=#6c8ebf;" parent="1" vertex="1">
          <mxGeometry x="1405" y="550" width="120" height="80" as="geometry" />
        </mxCell>
        <mxCell id="6NCEGb0OjvLogtX7WchQ-89" value="&lt;span style=&quot;font-size: 16px;&quot;&gt;address_id&lt;/span&gt;" style="ellipse;whiteSpace=wrap;html=1;fillColor=#dae8fc;strokeColor=#6c8ebf;" parent="1" vertex="1">
          <mxGeometry x="1460" y="455" width="120" height="80" as="geometry" />
        </mxCell>
        <mxCell id="6NCEGb0OjvLogtX7WchQ-90" value="" style="endArrow=none;html=1;rounded=0;exitX=0;exitY=0.5;exitDx=0;exitDy=0;entryX=0.75;entryY=0;entryDx=0;entryDy=0;" parent="1" source="6NCEGb0OjvLogtX7WchQ-87" target="6NCEGb0OjvLogtX7WchQ-86" edge="1">
          <mxGeometry width="50" height="50" relative="1" as="geometry">
            <mxPoint x="1040" y="450" as="sourcePoint" />
            <mxPoint x="1040" y="500" as="targetPoint" />
          </mxGeometry>
        </mxCell>
        <mxCell id="6NCEGb0OjvLogtX7WchQ-91" value="" style="endArrow=none;html=1;rounded=0;exitX=0;exitY=0;exitDx=0;exitDy=0;entryX=1;entryY=1;entryDx=0;entryDy=0;" parent="1" source="6NCEGb0OjvLogtX7WchQ-88" target="6NCEGb0OjvLogtX7WchQ-86" edge="1">
          <mxGeometry width="50" height="50" relative="1" as="geometry">
            <mxPoint x="1100" y="613" as="sourcePoint" />
            <mxPoint x="1040" y="645" as="targetPoint" />
          </mxGeometry>
        </mxCell>
        <mxCell id="6NCEGb0OjvLogtX7WchQ-92" value="" style="endArrow=none;html=1;rounded=0;exitX=0;exitY=0.5;exitDx=0;exitDy=0;entryX=1;entryY=0.5;entryDx=0;entryDy=0;" parent="1" source="6NCEGb0OjvLogtX7WchQ-89" target="6NCEGb0OjvLogtX7WchQ-86" edge="1">
          <mxGeometry width="50" height="50" relative="1" as="geometry">
            <mxPoint x="1100" y="613" as="sourcePoint" />
            <mxPoint x="1040" y="645" as="targetPoint" />
          </mxGeometry>
        </mxCell>
        <mxCell id="6NCEGb0OjvLogtX7WchQ-93" value="" style="edgeStyle=orthogonalEdgeStyle;fontSize=12;html=1;endArrow=ERoneToMany;startArrow=ERmandOne;rounded=0;exitX=0.5;exitY=1;exitDx=0;exitDy=0;entryX=1;entryY=0.5;entryDx=0;entryDy=0;" parent="1" source="6NCEGb0OjvLogtX7WchQ-41" target="6NCEGb0OjvLogtX7WchQ-47" edge="1">
          <mxGeometry width="100" height="100" relative="1" as="geometry">
            <mxPoint x="670" y="640" as="sourcePoint" />
            <mxPoint x="500" y="440" as="targetPoint" />
            <Array as="points">
              <mxPoint x="790" y="640" />
              <mxPoint x="290" y="640" />
              <mxPoint x="290" y="565" />
            </Array>
          </mxGeometry>
        </mxCell>
        <mxCell id="6NCEGb0OjvLogtX7WchQ-96" value="" style="edgeStyle=orthogonalEdgeStyle;fontSize=12;html=1;endArrow=ERoneToMany;startArrow=ERmandOne;rounded=0;entryX=0;entryY=0.5;entryDx=0;entryDy=0;" parent="1" target="eCV0NiuXoyMbTnGnmDhb-4" edge="1">
          <mxGeometry width="100" height="100" relative="1" as="geometry">
            <mxPoint x="218" y="595" as="sourcePoint" />
            <mxPoint x="400" y="830" as="targetPoint" />
            <Array as="points">
              <mxPoint x="218" y="640" />
              <mxPoint x="230" y="640" />
              <mxPoint x="230" y="830" />
            </Array>
          </mxGeometry>
        </mxCell>
        <mxCell id="6NCEGb0OjvLogtX7WchQ-97" value="" style="edgeStyle=orthogonalEdgeStyle;fontSize=12;html=1;endArrow=ERoneToMany;startArrow=ERmandOne;rounded=0;exitX=0.5;exitY=0;exitDx=0;exitDy=0;entryX=0;entryY=0.25;entryDx=0;entryDy=0;" parent="1" source="6NCEGb0OjvLogtX7WchQ-47" target="6NCEGb0OjvLogtX7WchQ-77" edge="1">
          <mxGeometry width="100" height="100" relative="1" as="geometry">
            <mxPoint x="540" y="460" as="sourcePoint" />
            <mxPoint x="980" y="175" as="targetPoint" />
            <Array as="points">
              <mxPoint x="200" y="490" />
              <mxPoint x="680" y="490" />
              <mxPoint x="680" y="380" />
              <mxPoint x="910" y="380" />
              <mxPoint x="910" y="110" />
            </Array>
          </mxGeometry>
        </mxCell>
        <mxCell id="6NCEGb0OjvLogtX7WchQ-98" value="" style="edgeStyle=orthogonalEdgeStyle;fontSize=12;html=1;endArrow=ERoneToMany;startArrow=ERmandOne;rounded=0;exitX=0.852;exitY=1.022;exitDx=0;exitDy=0;exitPerimeter=0;" parent="1" source="6NCEGb0OjvLogtX7WchQ-47" target="6NCEGb0OjvLogtX7WchQ-86" edge="1">
          <mxGeometry width="100" height="100" relative="1" as="geometry">
            <mxPoint x="540" y="680" as="sourcePoint" />
            <mxPoint x="1030" y="640" as="targetPoint" />
            <Array as="points">
              <mxPoint x="242" y="610" />
              <mxPoint x="260" y="610" />
              <mxPoint x="260" y="670" />
              <mxPoint x="950" y="670" />
              <mxPoint x="950" y="440" />
            </Array>
          </mxGeometry>
        </mxCell>
        <mxCell id="6NCEGb0OjvLogtX7WchQ-99" value="" style="edgeStyle=orthogonalEdgeStyle;fontSize=12;html=1;endArrow=ERoneToMany;startArrow=ERmandOne;rounded=0;entryX=0.75;entryY=0;entryDx=0;entryDy=0;exitX=0.665;exitY=1.017;exitDx=0;exitDy=0;exitPerimeter=0;" parent="1" source="6NCEGb0OjvLogtX7WchQ-86" target="6NCEGb0OjvLogtX7WchQ-47" edge="1">
          <mxGeometry width="100" height="100" relative="1" as="geometry">
            <mxPoint x="1050" y="670" as="sourcePoint" />
            <mxPoint x="640" y="580" as="targetPoint" />
            <Array as="points">
              <mxPoint x="1310" y="700" />
              <mxPoint x="610" y="700" />
              <mxPoint x="610" y="520" />
              <mxPoint x="230" y="520" />
            </Array>
          </mxGeometry>
        </mxCell>
        <mxCell id="6NCEGb0OjvLogtX7WchQ-100" value="&lt;span style=&quot;font-size: 21px;&quot;&gt;film_text&lt;/span&gt;" style="rounded=0;whiteSpace=wrap;html=1;fillColor=#ffe6cc;strokeColor=#d79b00;" parent="1" vertex="1">
          <mxGeometry x="920" y="750" width="120" height="60" as="geometry" />
        </mxCell>
        <mxCell id="6NCEGb0OjvLogtX7WchQ-101" value="" style="edgeStyle=orthogonalEdgeStyle;fontSize=12;html=1;endArrow=ERoneToMany;startArrow=ERmandOne;rounded=0;entryX=0;entryY=0.75;entryDx=0;entryDy=0;exitX=1;exitY=0.5;exitDx=0;exitDy=0;" parent="1" source="6NCEGb0OjvLogtX7WchQ-55" target="6NCEGb0OjvLogtX7WchQ-77" edge="1">
          <mxGeometry width="100" height="100" relative="1" as="geometry">
            <mxPoint x="690" y="880" as="sourcePoint" />
            <mxPoint x="640" y="360" as="targetPoint" />
            <Array as="points">
              <mxPoint x="470" y="960" />
              <mxPoint x="470" y="880" />
              <mxPoint x="690" y="880" />
              <mxPoint x="690" y="400" />
              <mxPoint x="970" y="400" />
            </Array>
          </mxGeometry>
        </mxCell>
        <mxCell id="6NCEGb0OjvLogtX7WchQ-102" value="" style="fontSize=12;html=1;endArrow=ERoneToMany;startArrow=ERmandOne;rounded=0;edgeStyle=orthogonalEdgeStyle;exitX=1;exitY=0.75;exitDx=0;exitDy=0;entryX=0.5;entryY=1;entryDx=0;entryDy=0;" parent="1" source="eCV0NiuXoyMbTnGnmDhb-1" target="6NCEGb0OjvLogtX7WchQ-77" edge="1">
          <mxGeometry width="100" height="100" relative="1" as="geometry">
            <mxPoint x="190" y="170" as="sourcePoint" />
            <mxPoint x="1390" y="160" as="targetPoint" />
            <Array as="points" />
          </mxGeometry>
        </mxCell>
        <mxCell id="6NCEGb0OjvLogtX7WchQ-103" value="" style="edgeStyle=orthogonalEdgeStyle;fontSize=12;html=1;endArrow=ERoneToMany;startArrow=ERmandOne;rounded=0;exitX=0;exitY=0.25;exitDx=0;exitDy=0;entryX=0.347;entryY=0.987;entryDx=0;entryDy=0;entryPerimeter=0;" parent="1" source="6NCEGb0OjvLogtX7WchQ-86" target="eCV0NiuXoyMbTnGnmDhb-1" edge="1">
          <mxGeometry width="100" height="100" relative="1" as="geometry">
            <mxPoint x="640" y="460" as="sourcePoint" />
            <mxPoint x="59" y="260" as="targetPoint" />
            <Array as="points">
              <mxPoint x="1210" y="425" />
              <mxPoint x="1210" y="410" />
              <mxPoint x="520" y="410" />
              <mxPoint x="520" y="450" />
              <mxPoint x="81" y="450" />
              <mxPoint x="81" y="320" />
              <mxPoint x="59" y="320" />
            </Array>
          </mxGeometry>
        </mxCell>
        <mxCell id="6NCEGb0OjvLogtX7WchQ-104" value="" style="edgeStyle=orthogonalEdgeStyle;fontSize=12;html=1;endArrow=ERoneToMany;startArrow=ERmandOne;rounded=0;exitX=0.25;exitY=1;exitDx=0;exitDy=0;entryX=1;entryY=0.5;entryDx=0;entryDy=0;" parent="1" source="6NCEGb0OjvLogtX7WchQ-77" target="eCV0NiuXoyMbTnGnmDhb-4" edge="1">
          <mxGeometry width="100" height="100" relative="1" as="geometry">
            <mxPoint x="800" y="420" as="sourcePoint" />
            <mxPoint x="580" y="830" as="targetPoint" />
            <Array as="points">
              <mxPoint x="1360" y="250" />
              <mxPoint x="930" y="250" />
              <mxPoint x="930" y="360" />
              <mxPoint x="660" y="360" />
              <mxPoint x="660" y="830" />
            </Array>
          </mxGeometry>
        </mxCell>
        <mxCell id="6NCEGb0OjvLogtX7WchQ-105" value="" style="edgeStyle=orthogonalEdgeStyle;fontSize=12;html=1;endArrow=ERoneToMany;startArrow=ERmandOne;rounded=0;exitX=0.5;exitY=1;exitDx=0;exitDy=0;entryX=0.75;entryY=1;entryDx=0;entryDy=0;" parent="1" source="6NCEGb0OjvLogtX7WchQ-55" target="eCV0NiuXoyMbTnGnmDhb-4" edge="1">
          <mxGeometry width="100" height="100" relative="1" as="geometry">
            <mxPoint x="389.5" y="1040" as="sourcePoint" />
            <mxPoint x="512" y="870" as="targetPoint" />
            <Array as="points">
              <mxPoint x="190" y="1041" />
              <mxPoint x="510" y="1041" />
              <mxPoint x="510" y="870" />
              <mxPoint x="512" y="870" />
            </Array>
          </mxGeometry>
        </mxCell>
        <mxCell id="6NCEGb0OjvLogtX7WchQ-106" value="" style="edgeStyle=orthogonalEdgeStyle;fontSize=12;html=1;endArrow=ERoneToMany;startArrow=ERmandOne;rounded=0;exitX=0.865;exitY=1.017;exitDx=0;exitDy=0;exitPerimeter=0;entryX=1;entryY=0.75;entryDx=0;entryDy=0;" parent="1" source="6NCEGb0OjvLogtX7WchQ-86" target="6NCEGb0OjvLogtX7WchQ-55" edge="1">
          <mxGeometry width="100" height="100" relative="1" as="geometry">
            <mxPoint x="1010" y="770" as="sourcePoint" />
            <mxPoint x="1084" y="950" as="targetPoint" />
            <Array as="points">
              <mxPoint x="1330" y="471" />
              <mxPoint x="1330" y="975" />
            </Array>
          </mxGeometry>
        </mxCell>
        <mxCell id="6NCEGb0OjvLogtX7WchQ-107" value="" style="edgeStyle=orthogonalEdgeStyle;fontSize=12;html=1;endArrow=ERoneToMany;startArrow=ERmandOne;rounded=0;exitX=0.25;exitY=1;exitDx=0;exitDy=0;entryX=1;entryY=0.25;entryDx=0;entryDy=0;" parent="1" source="6NCEGb0OjvLogtX7WchQ-41" target="6NCEGb0OjvLogtX7WchQ-55" edge="1">
          <mxGeometry width="100" height="100" relative="1" as="geometry">
            <mxPoint x="250" y="940" as="sourcePoint" />
            <mxPoint x="690" y="910" as="targetPoint" />
            <Array as="points">
              <mxPoint x="760" y="800" />
              <mxPoint x="710" y="800" />
              <mxPoint x="710" y="920" />
              <mxPoint x="390" y="920" />
              <mxPoint x="390" y="945" />
            </Array>
          </mxGeometry>
        </mxCell>
        <mxCell id="6NCEGb0OjvLogtX7WchQ-108" value="" style="edgeStyle=orthogonalEdgeStyle;fontSize=12;html=1;endArrow=ERoneToMany;startArrow=ERmandOne;rounded=0;entryX=0.5;entryY=0;entryDx=0;entryDy=0;exitX=0.5;exitY=1;exitDx=0;exitDy=0;" parent="1" source="6NCEGb0OjvLogtX7WchQ-36" target="6NCEGb0OjvLogtX7WchQ-41" edge="1">
          <mxGeometry width="100" height="100" relative="1" as="geometry">
            <mxPoint x="570" y="460" as="sourcePoint" />
            <mxPoint x="670" y="360" as="targetPoint" />
          </mxGeometry>
        </mxCell>
        <mxCell id="6NCEGb0OjvLogtX7WchQ-109" value="" style="edgeStyle=orthogonalEdgeStyle;fontSize=12;html=1;endArrow=ERoneToMany;startArrow=ERmandOne;rounded=0;exitX=1;exitY=0.5;exitDx=0;exitDy=0;entryX=0;entryY=0.5;entryDx=0;entryDy=0;" parent="1" source="6NCEGb0OjvLogtX7WchQ-70" target="6NCEGb0OjvLogtX7WchQ-36" edge="1">
          <mxGeometry width="100" height="100" relative="1" as="geometry">
            <mxPoint x="570" y="460" as="sourcePoint" />
            <mxPoint x="670" y="300" as="targetPoint" />
            <Array as="points">
              <mxPoint x="670" y="580" />
              <mxPoint x="670" y="308" />
            </Array>
          </mxGeometry>
        </mxCell>
        <mxCell id="6NCEGb0OjvLogtX7WchQ-110" value="" style="edgeStyle=orthogonalEdgeStyle;fontSize=12;html=1;endArrow=ERoneToMany;startArrow=ERmandOne;rounded=0;entryX=0.176;entryY=1.031;entryDx=0;entryDy=0;entryPerimeter=0;exitX=0.75;exitY=1;exitDx=0;exitDy=0;" parent="1" source="6NCEGb0OjvLogtX7WchQ-41" target="6NCEGb0OjvLogtX7WchQ-86" edge="1">
          <mxGeometry width="100" height="100" relative="1" as="geometry">
            <mxPoint x="820" y="580" as="sourcePoint" />
            <mxPoint x="970" y="505" as="targetPoint" />
            <Array as="points">
              <mxPoint x="820" y="610" />
              <mxPoint x="1250" y="610" />
              <mxPoint x="1250" y="472" />
            </Array>
          </mxGeometry>
        </mxCell>
        <mxCell id="eCV0NiuXoyMbTnGnmDhb-1" value="&lt;font style=&quot;font-size: 18px;&quot;&gt;inventory&lt;/font&gt;" style="shape=associativeEntity;whiteSpace=wrap;html=1;align=center;fillColor=#d5e8d4;strokeColor=#82b366;" parent="1" vertex="1">
          <mxGeometry x="10" y="170" width="140" height="60" as="geometry" />
        </mxCell>
        <mxCell id="eCV0NiuXoyMbTnGnmDhb-3" value="" style="edgeStyle=orthogonalEdgeStyle;fontSize=12;html=1;endArrow=ERoneToMany;startArrow=ERmandOne;rounded=0;exitX=1;exitY=0.25;exitDx=0;exitDy=0;entryX=0;entryY=0.5;entryDx=0;entryDy=0;" parent="1" source="6NCEGb0OjvLogtX7WchQ-2" target="6NCEGb0OjvLogtX7WchQ-1" edge="1">
          <mxGeometry width="100" height="100" relative="1" as="geometry">
            <mxPoint x="480" y="140" as="sourcePoint" />
            <mxPoint x="590" y="110" as="targetPoint" />
            <Array as="points">
              <mxPoint x="520" y="115" />
              <mxPoint x="520" y="60" />
              <mxPoint x="710" y="60" />
              <mxPoint x="710" y="125" />
            </Array>
          </mxGeometry>
        </mxCell>
        <mxCell id="eCV0NiuXoyMbTnGnmDhb-4" value="&lt;span style=&quot;font-size: 18px;&quot;&gt;payment&lt;/span&gt;" style="shape=associativeEntity;whiteSpace=wrap;html=1;align=center;fillColor=#d5e8d4;strokeColor=#82b366;" parent="1" vertex="1">
          <mxGeometry x="414" y="800" width="130" height="60" as="geometry" />
        </mxCell>
        <mxCell id="eCV0NiuXoyMbTnGnmDhb-5" value="&lt;font style=&quot;font-size: 18px;&quot;&gt;film_actor&lt;/font&gt;" style="shape=associativeEntity;whiteSpace=wrap;html=1;align=center;fillColor=#d5e8d4;strokeColor=#82b366;" parent="1" vertex="1">
          <mxGeometry x="380" y="320" width="140" height="60" as="geometry" />
        </mxCell>
        <mxCell id="D7ySm5UoetGfXziXgrcf-2" value="&lt;font style=&quot;font-size: 20px;&quot;&gt;has&lt;/font&gt;" style="html=1;whiteSpace=wrap;aspect=fixed;shape=isoRectangle;fillColor=#fff2cc;strokeColor=#d6b656;" vertex="1" parent="1">
          <mxGeometry x="571.67" y="27" width="108.33" height="65" as="geometry" />
        </mxCell>
        <mxCell id="D7ySm5UoetGfXziXgrcf-5" value="&lt;font style=&quot;font-size: 14px;&quot;&gt;has_original&lt;/font&gt;" style="html=1;whiteSpace=wrap;aspect=fixed;shape=isoRectangle;fillColor=#fff2cc;strokeColor=#d6b656;" vertex="1" parent="1">
          <mxGeometry x="581.67" y="102" width="108.33" height="65" as="geometry" />
        </mxCell>
        <mxCell id="D7ySm5UoetGfXziXgrcf-6" value="&lt;span style=&quot;font-size: 20px;&quot;&gt;pay&lt;/span&gt;" style="html=1;whiteSpace=wrap;aspect=fixed;shape=isoRectangle;fillColor=#fff2cc;strokeColor=#d6b656;" vertex="1" parent="1">
          <mxGeometry x="309.8299999999999" y="1009" width="108.33" height="65" as="geometry" />
        </mxCell>
        <mxCell id="D7ySm5UoetGfXziXgrcf-7" value="&lt;font style=&quot;font-size: 15px;&quot;&gt;belong&lt;/font&gt;" style="html=1;whiteSpace=wrap;aspect=fixed;shape=isoRectangle;fillColor=#fff2cc;strokeColor=#d6b656;" vertex="1" parent="1">
          <mxGeometry x="281.67" y="306.5" width="78.33" height="47" as="geometry" />
        </mxCell>
        <mxCell id="D7ySm5UoetGfXziXgrcf-8" value="&lt;font style=&quot;font-size: 15px;&quot;&gt;belong&lt;/font&gt;" style="html=1;whiteSpace=wrap;aspect=fixed;shape=isoRectangle;fillColor=#fff2cc;strokeColor=#d6b656;" vertex="1" parent="1">
          <mxGeometry x="511.67" y="226.5" width="78.33" height="47" as="geometry" />
        </mxCell>
        <mxCell id="D7ySm5UoetGfXziXgrcf-10" value="&lt;font style=&quot;font-size: 20px;&quot;&gt;located&lt;/font&gt;" style="html=1;whiteSpace=wrap;aspect=fixed;shape=isoRectangle;fillColor=#fff2cc;strokeColor=#d6b656;" vertex="1" parent="1">
          <mxGeometry x="760" y="277.5" width="100" height="60" as="geometry" />
        </mxCell>
        <mxCell id="D7ySm5UoetGfXziXgrcf-14" value="&lt;font style=&quot;font-size: 15px;&quot;&gt;deal with&lt;/font&gt;" style="html=1;whiteSpace=wrap;aspect=fixed;shape=isoRectangle;fillColor=#fff2cc;strokeColor=#d6b656;" vertex="1" parent="1">
          <mxGeometry x="180.67" y="740" width="100" height="60" as="geometry" />
        </mxCell>
        <mxCell id="D7ySm5UoetGfXziXgrcf-17" value="&lt;font style=&quot;font-size: 15px;&quot;&gt;deal with&lt;/font&gt;" style="html=1;whiteSpace=wrap;aspect=fixed;shape=isoRectangle;fillColor=#fff2cc;strokeColor=#d6b656;" vertex="1" parent="1">
          <mxGeometry x="490" y="459" width="100" height="60" as="geometry" />
        </mxCell>
        <mxCell id="D7ySm5UoetGfXziXgrcf-18" value="&lt;font style=&quot;font-size: 22px;&quot;&gt;invite&amp;nbsp;&lt;/font&gt;" style="html=1;whiteSpace=wrap;aspect=fixed;shape=isoRectangle;fillColor=#fff2cc;strokeColor=#d6b656;" vertex="1" parent="1">
          <mxGeometry x="870" y="940" width="116.67" height="70" as="geometry" />
        </mxCell>
        <mxCell id="D7ySm5UoetGfXziXgrcf-21" value="&lt;font style=&quot;font-size: 18px;&quot;&gt;belong to&lt;/font&gt;" style="html=1;whiteSpace=wrap;aspect=fixed;shape=isoRectangle;fillColor=#fff2cc;strokeColor=#d6b656;" vertex="1" parent="1">
          <mxGeometry x="1070" y="350" width="100" height="60" as="geometry" />
        </mxCell>
        <mxCell id="D7ySm5UoetGfXziXgrcf-23" value="&lt;span style=&quot;font-size: 21px;&quot;&gt;work at&lt;/span&gt;" style="html=1;whiteSpace=wrap;aspect=fixed;shape=isoRectangle;fillColor=#fff2cc;strokeColor=#d6b656;" vertex="1" parent="1">
          <mxGeometry x="883.66" y="500" width="133.34" height="80" as="geometry" />
        </mxCell>
        <mxCell id="D7ySm5UoetGfXziXgrcf-25" value="&lt;span style=&quot;font-size: 22px;&quot;&gt;Residence&lt;/span&gt;" style="html=1;whiteSpace=wrap;aspect=fixed;shape=isoRectangle;fillColor=#fff2cc;strokeColor=#d6b656;" vertex="1" parent="1">
          <mxGeometry x="529.99" y="880" width="133.34" height="80" as="geometry" />
        </mxCell>
        <mxCell id="D7ySm5UoetGfXziXgrcf-26" value="&lt;font style=&quot;font-size: 20px;&quot;&gt;Residence&lt;/font&gt;" style="html=1;whiteSpace=wrap;aspect=fixed;shape=isoRectangle;fillColor=#fff2cc;strokeColor=#d6b656;" vertex="1" parent="1">
          <mxGeometry x="1000" y="570" width="133.34" height="80" as="geometry" />
        </mxCell>
        <mxCell id="D7ySm5UoetGfXziXgrcf-27" value="&lt;span style=&quot;font-size: 21px;&quot;&gt;Hire&lt;/span&gt;" style="html=1;whiteSpace=wrap;aspect=fixed;shape=isoRectangle;fillColor=#fff2cc;strokeColor=#d6b656;" vertex="1" parent="1">
          <mxGeometry x="1086.6599999999999" y="660" width="133.34" height="80" as="geometry" />
        </mxCell>
        <mxCell id="D7ySm5UoetGfXziXgrcf-28" value="&lt;span style=&quot;font-size: 18px;&quot;&gt;rent&lt;/span&gt;" style="html=1;whiteSpace=wrap;aspect=fixed;shape=isoRectangle;fillColor=#fff2cc;strokeColor=#d6b656;" vertex="1" parent="1">
          <mxGeometry x="1133.34" y="110" width="100" height="60" as="geometry" />
        </mxCell>
        <mxCell id="D7ySm5UoetGfXziXgrcf-30" value="&lt;font style=&quot;font-size: 17px;&quot;&gt;association&lt;/font&gt;" style="html=1;whiteSpace=wrap;aspect=fixed;shape=isoRectangle;fillColor=#fff2cc;strokeColor=#d6b656;" vertex="1" parent="1">
          <mxGeometry x="1033.34" y="182" width="110" height="66" as="geometry" />
        </mxCell>
        <mxCell id="D7ySm5UoetGfXziXgrcf-33" value="&lt;span style=&quot;font-size: 15px;&quot;&gt;cast&lt;/span&gt;" style="html=1;whiteSpace=wrap;aspect=fixed;shape=isoRectangle;fillColor=#fff2cc;strokeColor=#d6b656;" vertex="1" parent="1">
          <mxGeometry x="421" y="259.5" width="78.33" height="47" as="geometry" />
        </mxCell>
        <mxCell id="D7ySm5UoetGfXziXgrcf-36" value="&lt;span style=&quot;font-size: 22px;&quot;&gt;acting&lt;/span&gt;" style="html=1;whiteSpace=wrap;aspect=fixed;shape=isoRectangle;fillColor=#fff2cc;strokeColor=#d6b656;" vertex="1" parent="1">
          <mxGeometry x="747" y="740" width="116.67" height="70" as="geometry" />
        </mxCell>
        <mxCell id="D7ySm5UoetGfXziXgrcf-38" value="&lt;font style=&quot;font-size: 14px;&quot;&gt;Residence&lt;/font&gt;" style="html=1;whiteSpace=wrap;aspect=fixed;shape=isoRectangle;fillColor=#fff2cc;strokeColor=#d6b656;" vertex="1" parent="1">
          <mxGeometry x="499.33000000000004" y="612" width="91.67" height="55" as="geometry" />
        </mxCell>
        <mxCell id="D7ySm5UoetGfXziXgrcf-40" value="&lt;span style=&quot;font-size: 14px;&quot;&gt;association&lt;/span&gt;" style="html=1;whiteSpace=wrap;aspect=fixed;shape=isoRectangle;fillColor=#fff2cc;strokeColor=#d6b656;" vertex="1" parent="1">
          <mxGeometry x="211.66999999999996" y="152" width="108.33" height="65" as="geometry" />
        </mxCell>
        <mxCell id="D7ySm5UoetGfXziXgrcf-44" value="&lt;font style=&quot;font-size: 20px;&quot;&gt;has&lt;/font&gt;" style="html=1;whiteSpace=wrap;aspect=fixed;shape=isoRectangle;fillColor=#fff2cc;strokeColor=#d6b656;" vertex="1" parent="1">
          <mxGeometry x="5" y="256.5" width="108.33" height="65" as="geometry" />
        </mxCell>
      </root>
    </mxGraphModel>
  </diagram>
</mxfile>
